<?xml version="1.0" standalone="no"?>
<!DOCTYPE svg PUBLIC "-//W3C//DTD SVG 20010904//EN"
 "http://www.w3.org/TR/2001/REC-SVG-20010904/DTD/svg10.dtd">
<svg version="1.0" xmlns="http://www.w3.org/2000/svg"
 width="800.000000pt" height="800.000000pt" viewBox="0 0 800.000000 800.000000"
 preserveAspectRatio="xMidYMid meet">

<g transform="translate(0.000000,800.000000) scale(0.100000,-0.100000)"
fill="#ff8000" stroke="none">
<path d="M3735 7739 c-956 -85 -1814 -597 -2341 -1394 -281 -427 -447 -891
-504 -1410 -16 -150 -14 -499 5 -661 83 -713 395 -1357 905 -1864 487 -485
1103 -790 1791 -885 180 -25 534 -30 719 -11 845 90 1598 498 2126 1154 378
469 608 1031 675 1642 16 149 16 483 0 630 -93 847 -504 1598 -1163 2127 -478
384 -1072 620 -1693 673 -137 11 -387 11 -520 -1z m559 -634 c839 -98 1574
-619 1947 -1380 119 -244 194 -483 236 -755 25 -162 24 -529 -1 -695 -81 -534
-314 -1006 -686 -1389 -405 -416 -900 -665 -1475 -741 -141 -18 -443 -21 -590
-5 -576 63 -1111 328 -1520 752 -197 204 -323 384 -450 643 -511 1039 -229
2296 678 3034 129 104 292 208 457 290 291 144 525 212 885 254 86 11 404 5
519 -8z"/>
<path d="M3877 6489 c-546 -63 -1034 -369 -1344 -841 -306 -466 -386 -1070
-212 -1608 17 -52 59 -153 93 -225 102 -211 188 -335 346 -499 274 -284 619
-469 1011 -542 130 -24 410 -29 556 -10 501 66 925 314 1241 727 11 14 -15 37
-200 176 -117 87 -218 162 -224 166 -6 3 -31 -21 -56 -56 -64 -86 -218 -233
-312 -296 -261 -177 -580 -247 -891 -196 -536 87 -985 560 -1069 1127 -58 389
43 769 289 1083 199 255 508 434 822 476 167 22 388 1 545 -52 226 -76 450
-235 600 -428 28 -36 55 -70 59 -74 4 -5 107 66 228 157 l222 167 -20 27 c-51
73 -191 219 -277 291 -300 250 -623 390 -996 430 -110 12 -309 12 -411 0z"/>
</g>
</svg>
